<?xml version="1.0" standalone="no"?>
<!DOCTYPE svg PUBLIC "-//W3C//DTD SVG 20010904//EN"
 "http://www.w3.org/TR/2001/REC-SVG-20010904/DTD/svg10.dtd">
<svg version="1.0" xmlns="http://www.w3.org/2000/svg"
 width="1280.000000pt" height="905.000000pt" viewBox="0 0 1280.000000 905.000000"
 preserveAspectRatio="xMidYMid meet">
<metadata>
Created by potrace 1.15, written by Peter Selinger 2001-2017
</metadata>
<g transform="translate(0.000000,905.000000) scale(0.100000,-0.100000)"
fill="#000000" stroke="none">
<path d="M5685 7054 c-102 -25 -217 -60 -246 -75 -18 -9 -21 19 37 -304 17
-96 27 -190 27 -260 1 -98 -1 -115 -23 -160 -22 -43 -36 -55 -109 -97 -91 -52
-112 -56 -187 -33 -47 14 -167 83 -189 108 -17 20 -112 97 -120 97 -9 0 -72
49 -163 128 l-72 63 -28 -19 c-15 -11 -85 -79 -155 -151 l-129 -131 35 -40
c19 -23 37 -54 40 -69 4 -17 51 -82 112 -152 137 -160 211 -270 225 -333 10
-48 10 -49 -43 -140 -67 -115 -90 -129 -228 -134 -110 -5 -211 7 -424 49 -82
16 -155 29 -161 29 -17 0 -114 -335 -114 -396 0 -14 10 -26 28 -33 26 -11 62
-75 49 -87 -3 -3 -47 12 -98 34 -191 80 -314 106 -509 106 -150 0 -256 -17
-399 -64 -483 -157 -811 -632 -811 -1172 0 -79 3 -97 25 -133 23 -41 74 -75
110 -75 19 0 68 -25 107 -53 62 -46 83 -39 590 197 113 53 215 96 226 96 29 0
85 -69 136 -169 58 -114 78 -178 74 -241 l-3 -52 -141 -76 c-78 -43 -237 -129
-354 -192 -234 -126 -294 -172 -305 -233 -13 -66 16 -120 94 -177 141 -105
445 -233 629 -265 373 -65 772 63 1045 337 43 43 82 78 85 78 4 0 67 -58 140
-129 86 -83 141 -129 155 -129 12 -1 37 -4 55 -8 35 -7 10 -24 345 234 89 68
180 118 234 128 40 8 104 -14 161 -56 30 -21 42 -39 51 -73 24 -99 10 -274
-44 -534 -14 -67 -25 -128 -25 -136 0 -25 303 -122 400 -128 19 -2 45 3 58 10
27 14 79 116 138 268 80 206 147 318 208 347 50 24 172 22 213 -4 68 -41 135
-165 216 -395 73 -208 80 -222 124 -227 70 -9 329 55 377 93 24 19 26 26 26
95 0 41 -10 128 -22 192 -15 79 -22 158 -22 242 -1 114 1 129 24 175 36 70
116 124 185 125 90 0 214 -73 403 -238 139 -121 147 -125 192 -119 30 4 60 21
113 63 96 78 177 163 177 186 0 11 5 28 11 39 16 31 -16 89 -107 194 -170 197
-244 317 -244 397 0 53 47 156 84 185 68 54 234 55 498 3 200 -39 211 -35 276
95 37 74 62 167 62 233 0 27 3 64 6 81 6 29 10 32 33 26 14 -3 82 -32 151 -65
218 -102 338 -130 556 -130 561 0 1048 345 1243 880 72 197 102 351 102 533 0
114 -2 132 -22 164 -30 48 -74 73 -129 73 -72 0 -168 -28 -244 -69 -83 -46
-625 -298 -646 -301 -31 -5 -43 2 -97 53 -68 64 -143 173 -195 284 -33 71 -38
91 -33 123 14 80 35 96 410 300 154 84 293 162 308 173 41 28 87 95 87 126 0
14 12 48 26 75 31 59 30 126 -4 174 -27 37 -187 142 -295 192 -195 90 -347
124 -562 123 -135 0 -162 -3 -270 -31 -227 -60 -426 -178 -633 -377 -89 -85
-154 -163 -288 -341 -229 -306 -329 -412 -359 -382 -16 16 61 128 191 279 l83
95 4 66 c3 36 10 75 16 87 11 20 1 33 -134 166 -80 80 -152 145 -161 145 -9 0
-70 -47 -135 -105 -226 -199 -361 -284 -464 -293 -48 -4 -59 0 -122 37 -52 31
-72 49 -81 74 -18 50 -14 198 9 322 30 161 35 271 15 319 -9 21 -16 56 -16 77
l0 38 -82 25 c-118 36 -231 64 -286 72 l-47 6 -54 -159 c-100 -291 -179 -442
-259 -496 -35 -23 -43 -24 -145 -19 l-107 5 -30 37 c-38 49 -99 171 -145 295
-45 122 -70 172 -100 205 -13 14 -32 48 -42 75 -23 62 -37 64 -178 29z m966
-1047 c253 -60 492 -186 688 -363 78 -70 136 -146 119 -155 -12 -6 -382 -97
-1093 -268 -159 -38 -524 -126 -810 -195 -580 -140 -665 -159 -674 -151 -12
12 -1 87 24 162 72 212 188 396 360 569 223 224 477 358 785 414 155 29 451
22 601 -13z m1069 -1916 c0 -40 -59 -175 -122 -281 -233 -393 -644 -667 -1092
-729 -112 -16 -355 -13 -466 4 -124 20 -303 76 -412 130 -154 76 -348 226
-348 269 0 48 74 89 235 130 236 59 1900 454 2105 498 81 18 100 14 100 -21z"/>
</g>
</svg>
